<mxfile host="app.diagrams.net" modified="2021-11-07T07:22:12.709Z" agent="5.0 (Windows NT 10.0; Win64; x64) AppleWebKit/537.36 (KHTML, like Gecko) Chrome/95.0.4638.69 Safari/537.36" etag="jCF6Av032CPDmqLPwjvQ" version="15.7.0" type="github">
  <diagram id="prtHgNgQTEPvFCAcTncT" name="Page-1">
    <mxGraphModel dx="868" dy="450" grid="1" gridSize="10" guides="1" tooltips="1" connect="1" arrows="1" fold="1" page="1" pageScale="1" pageWidth="827" pageHeight="1169" math="0" shadow="0">
      <root>
        <mxCell id="0" />
        <mxCell id="1" parent="0" />
        <mxCell id="dNxyNK7c78bLwvsdeMH5-19" value="Order &amp;amp; Purchase" style="swimlane;html=1;childLayout=stackLayout;resizeParent=1;resizeParentMax=0;horizontal=0;startSize=20;horizontalStack=0;" parent="1" vertex="1">
          <mxGeometry x="120" y="120" width="450" height="670" as="geometry" />
        </mxCell>
        <mxCell id="dNxyNK7c78bLwvsdeMH5-20" value="Buyer" style="swimlane;html=1;startSize=20;horizontal=0;" parent="dNxyNK7c78bLwvsdeMH5-19" vertex="1">
          <mxGeometry x="20" width="430" height="340" as="geometry" />
        </mxCell>
        <mxCell id="1DLhWKv3IPWzaCDEE1xv-9" value="Cart" style="swimlane;fontSize=10;" vertex="1" parent="dNxyNK7c78bLwvsdeMH5-20">
          <mxGeometry x="20" width="140" height="220" as="geometry">
            <mxRectangle x="20" width="50" height="23" as="alternateBounds" />
          </mxGeometry>
        </mxCell>
        <mxCell id="1DLhWKv3IPWzaCDEE1xv-1" value="Select Product" style="rounded=1;whiteSpace=wrap;html=1;fontSize=10;" vertex="1" parent="1DLhWKv3IPWzaCDEE1xv-9">
          <mxGeometry x="10" y="25" width="80" height="30" as="geometry" />
        </mxCell>
        <mxCell id="1DLhWKv3IPWzaCDEE1xv-2" value="&lt;font size=&quot;1&quot;&gt;Qty?&lt;/font&gt;" style="rhombus;whiteSpace=wrap;html=1;" vertex="1" parent="1DLhWKv3IPWzaCDEE1xv-9">
          <mxGeometry x="25" y="85" width="50" height="50" as="geometry" />
        </mxCell>
        <mxCell id="1DLhWKv3IPWzaCDEE1xv-3" value="" style="endArrow=classic;html=1;rounded=0;fontSize=11;" edge="1" parent="1DLhWKv3IPWzaCDEE1xv-9">
          <mxGeometry width="50" height="50" relative="1" as="geometry">
            <mxPoint x="50" y="55" as="sourcePoint" />
            <mxPoint x="50" y="85" as="targetPoint" />
            <Array as="points" />
          </mxGeometry>
        </mxCell>
        <mxCell id="1DLhWKv3IPWzaCDEE1xv-4" value="" style="endArrow=classic;html=1;rounded=0;fontSize=11;entryX=1;entryY=0.5;entryDx=0;entryDy=0;" edge="1" parent="1DLhWKv3IPWzaCDEE1xv-9">
          <mxGeometry width="50" height="50" relative="1" as="geometry">
            <mxPoint x="75" y="109.5" as="sourcePoint" />
            <mxPoint x="90" y="40" as="targetPoint" />
            <Array as="points">
              <mxPoint x="120" y="110" />
              <mxPoint x="120" y="40" />
            </Array>
          </mxGeometry>
        </mxCell>
        <mxCell id="1DLhWKv3IPWzaCDEE1xv-5" value="No" style="edgeLabel;html=1;align=center;verticalAlign=middle;resizable=0;points=[];fontSize=11;" vertex="1" connectable="0" parent="1DLhWKv3IPWzaCDEE1xv-4">
          <mxGeometry x="-0.0896" relative="1" as="geometry">
            <mxPoint y="-14" as="offset" />
          </mxGeometry>
        </mxCell>
        <mxCell id="1DLhWKv3IPWzaCDEE1xv-6" value="&lt;font size=&quot;1&quot;&gt;Add to Cart&lt;/font&gt;" style="shape=process;whiteSpace=wrap;html=1;backgroundOutline=1;fontSize=11;" vertex="1" parent="1DLhWKv3IPWzaCDEE1xv-9">
          <mxGeometry x="10" y="185" width="80" height="30" as="geometry" />
        </mxCell>
        <mxCell id="1DLhWKv3IPWzaCDEE1xv-7" value="" style="endArrow=classic;html=1;rounded=0;fontSize=10;" edge="1" parent="1DLhWKv3IPWzaCDEE1xv-9">
          <mxGeometry width="50" height="50" relative="1" as="geometry">
            <mxPoint x="49.5" y="135" as="sourcePoint" />
            <mxPoint x="49.5" y="185" as="targetPoint" />
          </mxGeometry>
        </mxCell>
        <mxCell id="1DLhWKv3IPWzaCDEE1xv-8" value="Yes" style="edgeLabel;html=1;align=center;verticalAlign=middle;resizable=0;points=[];fontSize=10;" vertex="1" connectable="0" parent="1DLhWKv3IPWzaCDEE1xv-7">
          <mxGeometry x="-0.28" y="1" relative="1" as="geometry">
            <mxPoint as="offset" />
          </mxGeometry>
        </mxCell>
        <mxCell id="1DLhWKv3IPWzaCDEE1xv-11" value="Vertical Container" style="swimlane;fontSize=10;" vertex="1" collapsed="1" parent="dNxyNK7c78bLwvsdeMH5-20">
          <mxGeometry x="20" y="220" width="120" height="23" as="geometry">
            <mxRectangle x="20" y="23" width="200" height="200" as="alternateBounds" />
          </mxGeometry>
        </mxCell>
        <mxCell id="dNxyNK7c78bLwvsdeMH5-21" value="Seller" style="swimlane;html=1;startSize=20;horizontal=0;" parent="dNxyNK7c78bLwvsdeMH5-19" vertex="1">
          <mxGeometry x="20" y="340" width="430" height="150" as="geometry" />
        </mxCell>
        <mxCell id="dNxyNK7c78bLwvsdeMH5-22" value="System" style="swimlane;html=1;startSize=20;horizontal=0;" parent="dNxyNK7c78bLwvsdeMH5-19" vertex="1">
          <mxGeometry x="20" y="490" width="430" height="180" as="geometry" />
        </mxCell>
      </root>
    </mxGraphModel>
  </diagram>
</mxfile>
